<svg width="356" height="196" viewBox="0 0 356 196" fill="none" xmlns="http://www.w3.org/2000/svg">
<path d="M99.7867 29.5017L19.6677 78.4857L19.6677 117.329L129.574 48.8956L99.7867 29.5017Z" fill="#030303"/>
<path d="M99.7867 29.5017L19.6677 78.4857L19.6677 117.329L129.574 48.8956L99.7867 29.5017Z" fill="#030303"/>
<path d="M50.6172 0L177.606 77.1572L180.154 117.329L50.6172 39.3356L50.6172 0Z" fill="#D94D1A"/>
<path d="M50.6172 0L180.154 77.3149L180.154 117.329L50.6172 39.3356L50.6172 0Z" fill="#D94D1A"/>
<path d="M104.147 166.313L180.154 117.329L180.154 77.654L70.2475 146.919L104.147 166.313Z" fill="#D94D1A"/>
<path d="M147.6 196L19.6677 117.329L19.6677 78.4678L147.6 156.664L147.6 196Z" fill="#111111"/>
<path d="M147.6 196L19.6677 117.329L19.6677 78.4678L147.6 156.664L147.6 196Z" fill="#111111"/>
<path d="M196.939 120C195.865 120 195.066 119.75 194.542 119.251C194.042 118.726 193.792 117.927 193.792 116.853V72.4219C193.792 71.323 194.042 70.5238 194.542 70.0242C195.066 69.5247 195.865 69.275 196.939 69.275C198.038 69.275 198.837 69.5247 199.337 70.0242C199.836 70.5238 200.086 71.323 200.086 72.4219V116.853C200.086 117.927 199.836 118.726 199.337 119.251C198.837 119.75 198.038 120 196.939 120ZM218.817 120C216.719 120 215.67 118.951 215.67 116.853V72.347C215.67 70.249 216.719 69.2001 218.817 69.2001H236.874C243.393 69.2001 248.188 70.7485 251.26 73.8455C254.357 76.9175 255.906 81.7127 255.906 88.2313V100.969C255.906 107.487 254.37 112.295 251.298 115.392C248.251 118.464 243.443 120 236.874 120H218.817ZM221.964 113.706H236.874C240.071 113.706 242.594 113.319 244.442 112.545C246.315 111.746 247.639 110.422 248.413 108.574C249.212 106.701 249.612 104.166 249.612 100.969V88.2313C249.612 85.0594 249.212 82.5494 248.413 80.7012C247.639 78.8281 246.315 77.4919 244.442 76.6927C242.594 75.8935 240.071 75.4939 236.874 75.4939H221.964V113.706ZM272.817 120C270.719 120 269.67 118.951 269.67 116.853V72.347C269.67 70.249 270.719 69.2001 272.817 69.2001H299.715C301.813 69.2001 302.862 70.249 302.862 72.347C302.862 74.4449 301.813 75.4939 299.715 75.4939H275.963V91.2284H290.874C292.972 91.2284 294.021 92.2773 294.021 94.3753C294.021 96.4732 292.972 97.5222 290.874 97.5222H275.963V113.706H299.715C301.813 113.706 302.862 114.755 302.862 116.853C302.862 118.951 301.813 120 299.715 120H272.817ZM330.775 120C329.476 120 328.452 119.176 327.703 117.527L309.196 73.6956C308.822 72.8215 308.722 72.0473 308.896 71.3729C309.071 70.6736 309.646 70.0992 310.62 69.6496C312.668 68.6256 314.116 69.1501 314.965 71.2231L332.461 112.657H330.288L347.334 71.2231C348.158 69.1751 349.606 68.6506 351.679 69.6496C352.553 70.0992 353.09 70.6736 353.29 71.3729C353.515 72.0473 353.453 72.8215 353.103 73.6956L334.446 117.527C333.672 119.176 332.548 120 331.075 120H330.775Z" fill="black"/>
</svg>
