<svg width="325" height="145" viewBox="0 0 325 145" fill="none" xmlns="http://www.w3.org/2000/svg">
<path d="M80.8901 21.8252L15.9432 58.0634L15.9432 86.7993L105.036 36.1728L80.8901 21.8252Z" fill="#D94D1A"/>
<path d="M80.8901 21.8252L15.9432 58.0634L15.9432 86.7993L105.036 36.1728L80.8901 21.8252Z" fill="#D94D1A"/>
<path d="M41.0319 0L143.973 57.0805L146.038 86.7993L41.0319 29.1003L41.0319 0Z" fill="black"/>
<path d="M41.0319 0L146.038 57.1972L146.038 86.7993L41.0319 29.1003L41.0319 0Z" fill="black"/>
<path d="M84.4246 123.037L146.038 86.7993L146.038 57.4481L56.9448 108.69L84.4246 123.037Z" fill="black"/>
<path d="M119.649 145L15.9433 86.7993L15.9433 58.0502L119.649 115.9L119.649 145Z" fill="#D94D1A"/>
<path d="M119.649 145L15.9433 86.7993L15.9433 58.0502L119.649 115.9L119.649 145Z" fill="#D94D1A"/>
<path d="M165.939 94C164.865 94 164.066 93.7502 163.542 93.2507C163.042 92.7263 162.792 91.927 162.792 90.8531V46.4219C162.792 45.323 163.042 44.5238 163.542 44.0242C164.066 43.5247 164.865 43.275 165.939 43.275C167.038 43.275 167.837 43.5247 168.337 44.0242C168.836 44.5238 169.086 45.323 169.086 46.4219V90.8531C169.086 91.927 168.836 92.7263 168.337 93.2507C167.837 93.7502 167.038 94 165.939 94ZM187.817 94C185.719 94 184.67 92.951 184.67 90.8531V46.347C184.67 44.249 185.719 43.2001 187.817 43.2001H205.874C212.393 43.2001 217.188 44.7485 220.26 47.8455C223.357 50.9175 224.906 55.7127 224.906 62.2313V74.9688C224.906 81.4873 223.37 86.2951 220.298 89.392C217.251 92.464 212.443 94 205.874 94H187.817ZM190.964 87.7062H205.874C209.071 87.7062 211.594 87.3191 213.442 86.5448C215.315 85.7456 216.639 84.4219 217.413 82.5738C218.212 80.7006 218.612 78.1656 218.612 74.9688V62.2313C218.612 59.0594 218.212 56.5494 217.413 54.7012C216.639 52.8281 215.315 51.4919 213.442 50.6927C211.594 49.8935 209.071 49.4939 205.874 49.4939H190.964V87.7062ZM241.817 94C239.719 94 238.67 92.951 238.67 90.8531V46.347C238.67 44.249 239.719 43.2001 241.817 43.2001H268.715C270.813 43.2001 271.862 44.249 271.862 46.347C271.862 48.4449 270.813 49.4939 268.715 49.4939H244.963V65.2284H259.874C261.972 65.2284 263.021 66.2773 263.021 68.3753C263.021 70.4732 261.972 71.5222 259.874 71.5222H244.963V87.7062H268.715C270.813 87.7062 271.862 88.7552 271.862 90.8531C271.862 92.951 270.813 94 268.715 94H241.817ZM299.775 94C298.476 94 297.452 93.1758 296.703 91.5274L278.196 47.6956C277.822 46.8215 277.722 46.0473 277.896 45.3729C278.071 44.6736 278.646 44.0992 279.62 43.6496C281.668 42.6256 283.116 43.1501 283.965 45.2231L301.461 86.6572H299.288L316.334 45.2231C317.158 43.1751 318.606 42.6506 320.679 43.6496C321.553 44.0992 322.09 44.6736 322.29 45.3729C322.515 46.0473 322.453 46.8215 322.103 47.6956L303.446 91.5274C302.672 93.1758 301.548 94 300.075 94H299.775Z" fill="#D94D1A"/>
</svg>
